<mxfile host="app.diagrams.net" modified="2023-09-14T01:29:49.035Z" agent="Mozilla/5.0 (Windows NT 10.0; Win64; x64) AppleWebKit/537.36 (KHTML, like Gecko) Chrome/116.0.0.0 Safari/537.36" etag="iXeySShCNMRdcAxi9LoT" version="21.7.2" type="onedrive">
  <diagram name="Page-1" id="kMS9cpWvDeyxyEm8MczO">
    <mxGraphModel grid="1" page="1" gridSize="10" guides="1" tooltips="1" connect="1" arrows="1" fold="1" pageScale="1" pageWidth="850" pageHeight="1100" math="0" shadow="0">
      <root>
        <mxCell id="0" />
        <mxCell id="1" parent="0" />
        <mxCell id="Mm4dQLEYSYV_0u4Z2ucA-16" value="" style="rounded=1;whiteSpace=wrap;html=1;dashed=1;" vertex="1" parent="1">
          <mxGeometry x="119.57" y="120" width="520" height="280" as="geometry" />
        </mxCell>
        <mxCell id="Mm4dQLEYSYV_0u4Z2ucA-47" value="" style="rounded=1;whiteSpace=wrap;html=1;dashed=1;strokeColor=#97D077;strokeWidth=2;fillColor=default;perimeterSpacing=0;" vertex="1" parent="1">
          <mxGeometry x="430" y="320" width="209.57" height="80" as="geometry" />
        </mxCell>
        <mxCell id="Mm4dQLEYSYV_0u4Z2ucA-13" style="edgeStyle=orthogonalEdgeStyle;rounded=0;orthogonalLoop=1;jettySize=auto;html=1;exitX=1;exitY=0.5;exitDx=0;exitDy=0;entryX=0.5;entryY=0;entryDx=0;entryDy=0;" edge="1" parent="1" source="Mm4dQLEYSYV_0u4Z2ucA-1" target="Mm4dQLEYSYV_0u4Z2ucA-10">
          <mxGeometry relative="1" as="geometry" />
        </mxCell>
        <mxCell id="Mm4dQLEYSYV_0u4Z2ucA-46" style="edgeStyle=orthogonalEdgeStyle;rounded=0;orthogonalLoop=1;jettySize=auto;html=1;exitX=0;exitY=0.5;exitDx=0;exitDy=0;entryX=1;entryY=0.5;entryDx=0;entryDy=0;" edge="1" parent="1" source="Mm4dQLEYSYV_0u4Z2ucA-1" target="Mm4dQLEYSYV_0u4Z2ucA-6">
          <mxGeometry relative="1" as="geometry" />
        </mxCell>
        <mxCell id="Mm4dQLEYSYV_0u4Z2ucA-1" value="PowerPC" style="rounded=0;whiteSpace=wrap;html=1;fillColor=#f8cecc;strokeColor=#b85450;" vertex="1" parent="1">
          <mxGeometry x="180" y="50" width="80" height="40" as="geometry" />
        </mxCell>
        <mxCell id="Mm4dQLEYSYV_0u4Z2ucA-15" style="edgeStyle=orthogonalEdgeStyle;rounded=0;orthogonalLoop=1;jettySize=auto;html=1;exitX=0.25;exitY=0;exitDx=0;exitDy=0;entryX=0.5;entryY=1;entryDx=0;entryDy=0;" edge="1" parent="1" source="Mm4dQLEYSYV_0u4Z2ucA-2" target="Mm4dQLEYSYV_0u4Z2ucA-10">
          <mxGeometry relative="1" as="geometry" />
        </mxCell>
        <mxCell id="Mm4dQLEYSYV_0u4Z2ucA-21" style="edgeStyle=orthogonalEdgeStyle;rounded=0;orthogonalLoop=1;jettySize=auto;html=1;exitX=1;exitY=0.5;exitDx=0;exitDy=0;entryX=0.5;entryY=0;entryDx=0;entryDy=0;" edge="1" parent="1" source="Mm4dQLEYSYV_0u4Z2ucA-2" target="Mm4dQLEYSYV_0u4Z2ucA-20">
          <mxGeometry relative="1" as="geometry" />
        </mxCell>
        <mxCell id="Mm4dQLEYSYV_0u4Z2ucA-31" value="Pulse PWM" style="edgeLabel;html=1;align=center;verticalAlign=middle;resizable=0;points=[];fontStyle=1" connectable="0" vertex="1" parent="Mm4dQLEYSYV_0u4Z2ucA-21">
          <mxGeometry x="-0.3429" y="1" relative="1" as="geometry">
            <mxPoint x="-5" y="1" as="offset" />
          </mxGeometry>
        </mxCell>
        <mxCell id="Mm4dQLEYSYV_0u4Z2ucA-37" style="edgeStyle=orthogonalEdgeStyle;rounded=0;orthogonalLoop=1;jettySize=auto;html=1;exitX=0.75;exitY=1;exitDx=0;exitDy=0;entryX=0.5;entryY=0;entryDx=0;entryDy=0;" edge="1" parent="1" source="Mm4dQLEYSYV_0u4Z2ucA-2" target="Mm4dQLEYSYV_0u4Z2ucA-30">
          <mxGeometry relative="1" as="geometry">
            <Array as="points">
              <mxPoint x="375" y="300" />
              <mxPoint x="405" y="300" />
            </Array>
          </mxGeometry>
        </mxCell>
        <mxCell id="Mm4dQLEYSYV_0u4Z2ucA-38" value="GPIO" style="edgeLabel;html=1;align=center;verticalAlign=middle;resizable=0;points=[];fontStyle=1" connectable="0" vertex="1" parent="Mm4dQLEYSYV_0u4Z2ucA-37">
          <mxGeometry x="-0.6036" y="-1" relative="1" as="geometry">
            <mxPoint x="23" y="9" as="offset" />
          </mxGeometry>
        </mxCell>
        <mxCell id="Mm4dQLEYSYV_0u4Z2ucA-41" style="edgeStyle=orthogonalEdgeStyle;rounded=0;orthogonalLoop=1;jettySize=auto;html=1;exitX=0.25;exitY=1;exitDx=0;exitDy=0;entryX=0.5;entryY=0;entryDx=0;entryDy=0;" edge="1" parent="1" source="Mm4dQLEYSYV_0u4Z2ucA-2" target="Mm4dQLEYSYV_0u4Z2ucA-40">
          <mxGeometry relative="1" as="geometry" />
        </mxCell>
        <mxCell id="Mm4dQLEYSYV_0u4Z2ucA-42" value="SPI" style="edgeLabel;html=1;align=center;verticalAlign=middle;resizable=0;points=[];fontStyle=1" connectable="0" vertex="1" parent="Mm4dQLEYSYV_0u4Z2ucA-41">
          <mxGeometry x="0.0964" y="1" relative="1" as="geometry">
            <mxPoint x="-8" y="12" as="offset" />
          </mxGeometry>
        </mxCell>
        <mxCell id="Mm4dQLEYSYV_0u4Z2ucA-88" style="edgeStyle=orthogonalEdgeStyle;rounded=0;orthogonalLoop=1;jettySize=auto;html=1;exitX=0;exitY=0.5;exitDx=0;exitDy=0;entryX=0.5;entryY=0;entryDx=0;entryDy=0;" edge="1" parent="1" source="Mm4dQLEYSYV_0u4Z2ucA-2" target="Mm4dQLEYSYV_0u4Z2ucA-86">
          <mxGeometry relative="1" as="geometry" />
        </mxCell>
        <mxCell id="Mm4dQLEYSYV_0u4Z2ucA-89" value="PWM (Sound)" style="edgeLabel;html=1;align=center;verticalAlign=middle;resizable=0;points=[];fontStyle=1" connectable="0" vertex="1" parent="Mm4dQLEYSYV_0u4Z2ucA-88">
          <mxGeometry x="-0.086" relative="1" as="geometry">
            <mxPoint x="17" as="offset" />
          </mxGeometry>
        </mxCell>
        <mxCell id="Mm4dQLEYSYV_0u4Z2ucA-125" style="edgeStyle=orthogonalEdgeStyle;rounded=0;orthogonalLoop=1;jettySize=auto;html=1;exitX=1;exitY=0.75;exitDx=0;exitDy=0;entryX=0.25;entryY=0;entryDx=0;entryDy=0;" edge="1" parent="1" source="Mm4dQLEYSYV_0u4Z2ucA-2" target="Mm4dQLEYSYV_0u4Z2ucA-20">
          <mxGeometry relative="1" as="geometry" />
        </mxCell>
        <mxCell id="Mm4dQLEYSYV_0u4Z2ucA-126" value="DIR" style="edgeLabel;html=1;align=center;verticalAlign=middle;resizable=0;points=[];" connectable="0" vertex="1" parent="Mm4dQLEYSYV_0u4Z2ucA-125">
          <mxGeometry x="-0.2673" relative="1" as="geometry">
            <mxPoint y="1" as="offset" />
          </mxGeometry>
        </mxCell>
        <mxCell id="Mm4dQLEYSYV_0u4Z2ucA-129" style="edgeStyle=orthogonalEdgeStyle;rounded=0;orthogonalLoop=1;jettySize=auto;html=1;exitX=1;exitY=0.25;exitDx=0;exitDy=0;entryX=0.75;entryY=0;entryDx=0;entryDy=0;" edge="1" parent="1" source="Mm4dQLEYSYV_0u4Z2ucA-2" target="Mm4dQLEYSYV_0u4Z2ucA-20">
          <mxGeometry relative="1" as="geometry" />
        </mxCell>
        <mxCell id="Mm4dQLEYSYV_0u4Z2ucA-130" value="ENA" style="edgeLabel;html=1;align=center;verticalAlign=middle;resizable=0;points=[];" connectable="0" vertex="1" parent="Mm4dQLEYSYV_0u4Z2ucA-129">
          <mxGeometry x="-0.6482" y="1" relative="1" as="geometry">
            <mxPoint x="14" y="-1" as="offset" />
          </mxGeometry>
        </mxCell>
        <mxCell id="Mm4dQLEYSYV_0u4Z2ucA-2" value="Microcontroller" style="whiteSpace=wrap;html=1;fillColor=#f8cecc;strokeColor=#b85450;" vertex="1" parent="1">
          <mxGeometry x="299.57" y="220" width="100.43" height="40" as="geometry" />
        </mxCell>
        <mxCell id="Mm4dQLEYSYV_0u4Z2ucA-28" style="edgeStyle=orthogonalEdgeStyle;rounded=0;orthogonalLoop=1;jettySize=auto;html=1;exitX=0.5;exitY=1;exitDx=0;exitDy=0;entryX=0.5;entryY=0;entryDx=0;entryDy=0;" edge="1" parent="1" source="Mm4dQLEYSYV_0u4Z2ucA-5" target="Mm4dQLEYSYV_0u4Z2ucA-26">
          <mxGeometry relative="1" as="geometry" />
        </mxCell>
        <mxCell id="Mm4dQLEYSYV_0u4Z2ucA-5" value="Motor Controller" style="whiteSpace=wrap;html=1;" vertex="1" parent="1">
          <mxGeometry x="449.57" y="500" width="80" height="40" as="geometry" />
        </mxCell>
        <mxCell id="Mm4dQLEYSYV_0u4Z2ucA-45" style="edgeStyle=orthogonalEdgeStyle;rounded=0;orthogonalLoop=1;jettySize=auto;html=1;exitX=1;exitY=0.5;exitDx=0;exitDy=0;entryX=0;entryY=0.5;entryDx=0;entryDy=0;" edge="1" parent="1" source="Mm4dQLEYSYV_0u4Z2ucA-6" target="Mm4dQLEYSYV_0u4Z2ucA-1">
          <mxGeometry relative="1" as="geometry" />
        </mxCell>
        <mxCell id="Mm4dQLEYSYV_0u4Z2ucA-6" value="Camera" style="whiteSpace=wrap;html=1;fillColor=#e1d5e7;strokeColor=#9673a6;" vertex="1" parent="1">
          <mxGeometry x="39.57" y="50" width="80" height="40" as="geometry" />
        </mxCell>
        <mxCell id="Mm4dQLEYSYV_0u4Z2ucA-12" style="edgeStyle=orthogonalEdgeStyle;rounded=0;orthogonalLoop=1;jettySize=auto;html=1;exitX=0.5;exitY=1;exitDx=0;exitDy=0;entryX=0.25;entryY=0;entryDx=0;entryDy=0;" edge="1" parent="1" source="Mm4dQLEYSYV_0u4Z2ucA-10" target="Mm4dQLEYSYV_0u4Z2ucA-2">
          <mxGeometry relative="1" as="geometry" />
        </mxCell>
        <mxCell id="Mm4dQLEYSYV_0u4Z2ucA-69" value="UART" style="edgeLabel;html=1;align=center;verticalAlign=middle;resizable=0;points=[];fontStyle=1" connectable="0" vertex="1" parent="Mm4dQLEYSYV_0u4Z2ucA-12">
          <mxGeometry x="-0.0857" relative="1" as="geometry">
            <mxPoint as="offset" />
          </mxGeometry>
        </mxCell>
        <mxCell id="Mm4dQLEYSYV_0u4Z2ucA-14" style="edgeStyle=orthogonalEdgeStyle;rounded=0;orthogonalLoop=1;jettySize=auto;html=1;exitX=0.5;exitY=0;exitDx=0;exitDy=0;entryX=1;entryY=0.5;entryDx=0;entryDy=0;" edge="1" parent="1" source="Mm4dQLEYSYV_0u4Z2ucA-10" target="Mm4dQLEYSYV_0u4Z2ucA-1">
          <mxGeometry relative="1" as="geometry" />
        </mxCell>
        <mxCell id="Mm4dQLEYSYV_0u4Z2ucA-68" value="USB" style="edgeLabel;html=1;align=center;verticalAlign=middle;resizable=0;points=[];" connectable="0" vertex="1" parent="Mm4dQLEYSYV_0u4Z2ucA-14">
          <mxGeometry x="0.5134" y="-2" relative="1" as="geometry">
            <mxPoint x="3" y="2" as="offset" />
          </mxGeometry>
        </mxCell>
        <mxCell id="Mm4dQLEYSYV_0u4Z2ucA-10" value="&lt;font style=&quot;font-size: 10px;&quot;&gt;USB/UART Translator&lt;/font&gt;" style="rounded=0;whiteSpace=wrap;html=1;fillColor=#dae8fc;strokeColor=#6c8ebf;" vertex="1" parent="1">
          <mxGeometry x="289.57" y="140" width="60" height="40" as="geometry" />
        </mxCell>
        <mxCell id="Mm4dQLEYSYV_0u4Z2ucA-50" style="edgeStyle=orthogonalEdgeStyle;rounded=0;orthogonalLoop=1;jettySize=auto;html=1;exitX=0;exitY=0.5;exitDx=0;exitDy=0;entryX=1;entryY=0.5;entryDx=0;entryDy=0;" edge="1" parent="1" source="Mm4dQLEYSYV_0u4Z2ucA-19" target="Mm4dQLEYSYV_0u4Z2ucA-5">
          <mxGeometry relative="1" as="geometry" />
        </mxCell>
        <mxCell id="Mm4dQLEYSYV_0u4Z2ucA-19" value="Motor Power Supply&lt;br&gt;(24V)" style="whiteSpace=wrap;html=1;fillColor=#d5e8d4;strokeColor=#82b366;" vertex="1" parent="1">
          <mxGeometry x="699.57" y="480" width="80" height="80" as="geometry" />
        </mxCell>
        <mxCell id="Mm4dQLEYSYV_0u4Z2ucA-22" style="edgeStyle=orthogonalEdgeStyle;rounded=0;orthogonalLoop=1;jettySize=auto;html=1;exitX=0.5;exitY=1;exitDx=0;exitDy=0;entryX=0.5;entryY=0;entryDx=0;entryDy=0;" edge="1" parent="1" source="Mm4dQLEYSYV_0u4Z2ucA-20" target="Mm4dQLEYSYV_0u4Z2ucA-5">
          <mxGeometry relative="1" as="geometry" />
        </mxCell>
        <mxCell id="Mm4dQLEYSYV_0u4Z2ucA-137" style="edgeStyle=orthogonalEdgeStyle;rounded=0;orthogonalLoop=1;jettySize=auto;html=1;exitX=0.75;exitY=1;exitDx=0;exitDy=0;entryX=0.75;entryY=0;entryDx=0;entryDy=0;" edge="1" parent="1" source="Mm4dQLEYSYV_0u4Z2ucA-20" target="Mm4dQLEYSYV_0u4Z2ucA-5">
          <mxGeometry relative="1" as="geometry" />
        </mxCell>
        <mxCell id="Mm4dQLEYSYV_0u4Z2ucA-138" style="edgeStyle=orthogonalEdgeStyle;rounded=0;orthogonalLoop=1;jettySize=auto;html=1;exitX=0.25;exitY=1;exitDx=0;exitDy=0;entryX=0.25;entryY=0;entryDx=0;entryDy=0;" edge="1" parent="1" source="Mm4dQLEYSYV_0u4Z2ucA-20" target="Mm4dQLEYSYV_0u4Z2ucA-5">
          <mxGeometry relative="1" as="geometry" />
        </mxCell>
        <mxCell id="Mm4dQLEYSYV_0u4Z2ucA-20" value="&lt;font style=&quot;font-size: 9px;&quot;&gt;3.3V to 5V Level Translator IC&lt;/font&gt;" style="rounded=0;whiteSpace=wrap;html=1;fillColor=#dae8fc;strokeColor=#6c8ebf;" vertex="1" parent="1">
          <mxGeometry x="459.57" y="295" width="60" height="50" as="geometry" />
        </mxCell>
        <mxCell id="Mm4dQLEYSYV_0u4Z2ucA-26" value="Stepper Motor (x2)" style="whiteSpace=wrap;html=1;" vertex="1" parent="1">
          <mxGeometry x="449.57" y="580" width="80" height="40" as="geometry" />
        </mxCell>
        <mxCell id="Mm4dQLEYSYV_0u4Z2ucA-29" value="&lt;font style=&quot;font-size: 10px;&quot;&gt;PCB Boundary&lt;/font&gt;" style="text;html=1;align=center;verticalAlign=middle;resizable=0;points=[];autosize=1;strokeColor=none;fillColor=none;" vertex="1" parent="1">
          <mxGeometry x="149.57" y="120" width="90" height="30" as="geometry" />
        </mxCell>
        <mxCell id="Mm4dQLEYSYV_0u4Z2ucA-30" value="Score Detection Sensors (x2)" style="whiteSpace=wrap;html=1;fillColor=#e1d5e7;strokeColor=#9673a6;" vertex="1" parent="1">
          <mxGeometry x="355" y="440" width="100" height="30" as="geometry" />
        </mxCell>
        <mxCell id="Mm4dQLEYSYV_0u4Z2ucA-39" value="&lt;font style=&quot;font-size: 10px;&quot;&gt;7 Segment Display Scoreboard&lt;/font&gt;" style="whiteSpace=wrap;html=1;fillColor=#e1d5e7;strokeColor=#9673a6;" vertex="1" parent="1">
          <mxGeometry x="249.57" y="490" width="100" height="45" as="geometry" />
        </mxCell>
        <mxCell id="Mm4dQLEYSYV_0u4Z2ucA-43" style="edgeStyle=orthogonalEdgeStyle;rounded=0;orthogonalLoop=1;jettySize=auto;html=1;exitX=0.5;exitY=1;exitDx=0;exitDy=0;entryX=0.5;entryY=0;entryDx=0;entryDy=0;" edge="1" parent="1" source="Mm4dQLEYSYV_0u4Z2ucA-40" target="Mm4dQLEYSYV_0u4Z2ucA-39">
          <mxGeometry relative="1" as="geometry" />
        </mxCell>
        <mxCell id="Mm4dQLEYSYV_0u4Z2ucA-40" value="Shift Registers" style="whiteSpace=wrap;html=1;" vertex="1" parent="1">
          <mxGeometry x="260" y="333.75" width="80" height="30" as="geometry" />
        </mxCell>
        <mxCell id="Mm4dQLEYSYV_0u4Z2ucA-48" value="3.3V Region" style="text;html=1;align=center;verticalAlign=middle;resizable=0;points=[];autosize=1;strokeColor=none;fillColor=none;" vertex="1" parent="1">
          <mxGeometry x="549.57" y="230" width="90" height="30" as="geometry" />
        </mxCell>
        <mxCell id="Mm4dQLEYSYV_0u4Z2ucA-57" style="edgeStyle=orthogonalEdgeStyle;rounded=0;orthogonalLoop=1;jettySize=auto;html=1;exitX=0;exitY=0.5;exitDx=0;exitDy=0;entryX=0.5;entryY=1;entryDx=0;entryDy=0;" edge="1" parent="1" source="Mm4dQLEYSYV_0u4Z2ucA-49" target="Mm4dQLEYSYV_0u4Z2ucA-52">
          <mxGeometry relative="1" as="geometry" />
        </mxCell>
        <mxCell id="Mm4dQLEYSYV_0u4Z2ucA-58" style="edgeStyle=orthogonalEdgeStyle;rounded=0;orthogonalLoop=1;jettySize=auto;html=1;exitX=0;exitY=0.5;exitDx=0;exitDy=0;" edge="1" parent="1" source="Mm4dQLEYSYV_0u4Z2ucA-49" target="Mm4dQLEYSYV_0u4Z2ucA-55">
          <mxGeometry relative="1" as="geometry" />
        </mxCell>
        <mxCell id="Mm4dQLEYSYV_0u4Z2ucA-49" value="5V Power Supply" style="whiteSpace=wrap;html=1;fillColor=#d5e8d4;strokeColor=#82b366;" vertex="1" parent="1">
          <mxGeometry x="699.57" y="363.75" width="80" height="42.5" as="geometry" />
        </mxCell>
        <mxCell id="Mm4dQLEYSYV_0u4Z2ucA-61" style="edgeStyle=orthogonalEdgeStyle;rounded=0;orthogonalLoop=1;jettySize=auto;html=1;exitX=0.5;exitY=0;exitDx=0;exitDy=0;" edge="1" parent="1" source="Mm4dQLEYSYV_0u4Z2ucA-52" target="Mm4dQLEYSYV_0u4Z2ucA-48">
          <mxGeometry relative="1" as="geometry" />
        </mxCell>
        <mxCell id="Mm4dQLEYSYV_0u4Z2ucA-52" value="&lt;font style=&quot;font-size: 9px;&quot;&gt;LDO&amp;nbsp;&lt;br&gt;(5V--&amp;gt;3.3V)&lt;/font&gt;" style="whiteSpace=wrap;html=1;" vertex="1" parent="1">
          <mxGeometry x="569.57" y="295" width="50" height="50" as="geometry" />
        </mxCell>
        <mxCell id="Mm4dQLEYSYV_0u4Z2ucA-55" value="5V Region" style="text;html=1;align=center;verticalAlign=middle;resizable=0;points=[];autosize=1;strokeColor=none;fillColor=none;" vertex="1" parent="1">
          <mxGeometry x="500.00000000000006" y="370" width="80" height="30" as="geometry" />
        </mxCell>
        <mxCell id="Mm4dQLEYSYV_0u4Z2ucA-63" style="edgeStyle=orthogonalEdgeStyle;rounded=0;orthogonalLoop=1;jettySize=auto;html=1;entryX=0.5;entryY=0;entryDx=0;entryDy=0;" edge="1" parent="1" source="Mm4dQLEYSYV_0u4Z2ucA-62" target="Mm4dQLEYSYV_0u4Z2ucA-19">
          <mxGeometry relative="1" as="geometry" />
        </mxCell>
        <mxCell id="Mm4dQLEYSYV_0u4Z2ucA-64" style="edgeStyle=orthogonalEdgeStyle;rounded=0;orthogonalLoop=1;jettySize=auto;html=1;entryX=0.5;entryY=1;entryDx=0;entryDy=0;" edge="1" parent="1" source="Mm4dQLEYSYV_0u4Z2ucA-62" target="Mm4dQLEYSYV_0u4Z2ucA-49">
          <mxGeometry relative="1" as="geometry" />
        </mxCell>
        <mxCell id="Mm4dQLEYSYV_0u4Z2ucA-62" value="&lt;font style=&quot;font-size: 9px;&quot;&gt;share ground&lt;/font&gt;" style="text;html=1;align=center;verticalAlign=middle;resizable=0;points=[];autosize=1;strokeColor=none;fillColor=none;" vertex="1" parent="1">
          <mxGeometry x="699.57" y="428" width="80" height="30" as="geometry" />
        </mxCell>
        <mxCell id="Mm4dQLEYSYV_0u4Z2ucA-81" style="edgeStyle=orthogonalEdgeStyle;rounded=0;orthogonalLoop=1;jettySize=auto;html=1;exitX=0.5;exitY=1;exitDx=0;exitDy=0;entryX=0.75;entryY=0;entryDx=0;entryDy=0;" edge="1" parent="1" source="Mm4dQLEYSYV_0u4Z2ucA-67" target="Mm4dQLEYSYV_0u4Z2ucA-2">
          <mxGeometry relative="1" as="geometry">
            <Array as="points">
              <mxPoint x="419.57" y="150" />
              <mxPoint x="374.57" y="150" />
            </Array>
          </mxGeometry>
        </mxCell>
        <mxCell id="Mm4dQLEYSYV_0u4Z2ucA-82" value="SWD" style="edgeLabel;html=1;align=center;verticalAlign=middle;resizable=0;points=[];fontStyle=1" connectable="0" vertex="1" parent="Mm4dQLEYSYV_0u4Z2ucA-81">
          <mxGeometry x="-0.7781" y="-2" relative="1" as="geometry">
            <mxPoint as="offset" />
          </mxGeometry>
        </mxCell>
        <mxCell id="Mm4dQLEYSYV_0u4Z2ucA-92" value="SWD" style="edgeLabel;html=1;align=center;verticalAlign=middle;resizable=0;points=[];fontStyle=1" connectable="0" vertex="1" parent="Mm4dQLEYSYV_0u4Z2ucA-81">
          <mxGeometry x="0.5286" relative="1" as="geometry">
            <mxPoint y="18" as="offset" />
          </mxGeometry>
        </mxCell>
        <mxCell id="Mm4dQLEYSYV_0u4Z2ucA-67" value="STLink" style="whiteSpace=wrap;html=1;" vertex="1" parent="1">
          <mxGeometry x="379.57" y="20" width="80" height="40" as="geometry" />
        </mxCell>
        <mxCell id="Mm4dQLEYSYV_0u4Z2ucA-76" value="&lt;font style=&quot;font-size: 8px;&quot;&gt;USB Mini-B&lt;/font&gt;" style="whiteSpace=wrap;html=1;fillColor=#ffe6cc;strokeColor=#d79b00;" vertex="1" parent="1">
          <mxGeometry x="294.57" y="100" width="50" height="20" as="geometry" />
        </mxCell>
        <mxCell id="Mm4dQLEYSYV_0u4Z2ucA-78" value="&lt;font style=&quot;font-size: 8px;&quot;&gt;JTAG 10-Pin&lt;/font&gt;" style="whiteSpace=wrap;html=1;fillColor=#ffe6cc;strokeColor=#d79b00;" vertex="1" parent="1">
          <mxGeometry x="389.57" y="100" width="60" height="20" as="geometry" />
        </mxCell>
        <mxCell id="Mm4dQLEYSYV_0u4Z2ucA-84" value="&lt;font style=&quot;font-size: 8px;&quot;&gt;8-Pin Connector (x2)&lt;/font&gt;" style="whiteSpace=wrap;html=1;fillColor=#ffe6cc;strokeColor=#d79b00;" vertex="1" parent="1">
          <mxGeometry x="254.57" y="400" width="90" height="20" as="geometry" />
        </mxCell>
        <mxCell id="Mm4dQLEYSYV_0u4Z2ucA-85" value="" style="group" connectable="0" vertex="1" parent="1">
          <mxGeometry x="710" y="10" width="130" height="190" as="geometry" />
        </mxCell>
        <mxCell id="Mm4dQLEYSYV_0u4Z2ucA-74" value="&lt;font style=&quot;font-size: 8px;&quot;&gt;PCB-&amp;gt;External Connector&lt;/font&gt;" style="whiteSpace=wrap;html=1;fillColor=#ffe6cc;strokeColor=#d79b00;container=0;" vertex="1" parent="Mm4dQLEYSYV_0u4Z2ucA-85">
          <mxGeometry y="170" width="130" height="20" as="geometry" />
        </mxCell>
        <mxCell id="Mm4dQLEYSYV_0u4Z2ucA-32" value="Color Codes:&lt;br&gt;" style="text;html=1;align=left;verticalAlign=middle;resizable=1;points=[];autosize=0;strokeColor=none;fillColor=none;container=0;" vertex="1" parent="Mm4dQLEYSYV_0u4Z2ucA-85">
          <mxGeometry width="80" height="17" as="geometry" />
        </mxCell>
        <mxCell id="Mm4dQLEYSYV_0u4Z2ucA-33" value="Computation Centers" style="whiteSpace=wrap;html=1;fillColor=#f8cecc;strokeColor=#b85450;container=0;" vertex="1" parent="Mm4dQLEYSYV_0u4Z2ucA-85">
          <mxGeometry y="30" width="130" height="20" as="geometry" />
        </mxCell>
        <mxCell id="Mm4dQLEYSYV_0u4Z2ucA-34" value="Translation Units" style="whiteSpace=wrap;html=1;fillColor=#dae8fc;strokeColor=#6c8ebf;container=0;" vertex="1" parent="Mm4dQLEYSYV_0u4Z2ucA-85">
          <mxGeometry y="60" width="130" height="20" as="geometry" />
        </mxCell>
        <mxCell id="Mm4dQLEYSYV_0u4Z2ucA-35" value="&lt;font style=&quot;font-size: 9px;&quot;&gt;Power Supplies/&lt;br&gt;Power Domain Boundaries&lt;/font&gt;" style="whiteSpace=wrap;html=1;fillColor=#d5e8d4;strokeColor=#82b366;container=0;" vertex="1" parent="Mm4dQLEYSYV_0u4Z2ucA-85">
          <mxGeometry y="90" width="130" height="40" as="geometry" />
        </mxCell>
        <mxCell id="Mm4dQLEYSYV_0u4Z2ucA-36" value="Sensors/UI" style="whiteSpace=wrap;html=1;fillColor=#e1d5e7;strokeColor=#9673a6;container=0;" vertex="1" parent="Mm4dQLEYSYV_0u4Z2ucA-85">
          <mxGeometry y="140" width="130" height="20" as="geometry" />
        </mxCell>
        <mxCell id="Mm4dQLEYSYV_0u4Z2ucA-91" style="edgeStyle=orthogonalEdgeStyle;rounded=0;orthogonalLoop=1;jettySize=auto;html=1;exitX=0.5;exitY=1;exitDx=0;exitDy=0;entryX=0.5;entryY=0;entryDx=0;entryDy=0;" edge="1" parent="1" source="Mm4dQLEYSYV_0u4Z2ucA-86" target="Mm4dQLEYSYV_0u4Z2ucA-90">
          <mxGeometry relative="1" as="geometry" />
        </mxCell>
        <mxCell id="Mm4dQLEYSYV_0u4Z2ucA-86" value="Analog Amplifier" style="whiteSpace=wrap;html=1;" vertex="1" parent="1">
          <mxGeometry x="144.57" y="290" width="100" height="30" as="geometry" />
        </mxCell>
        <mxCell id="Mm4dQLEYSYV_0u4Z2ucA-90" value="Speaker" style="whiteSpace=wrap;html=1;fillColor=#e1d5e7;strokeColor=#9673a6;" vertex="1" parent="1">
          <mxGeometry x="154.57" y="450" width="80" height="20" as="geometry" />
        </mxCell>
        <mxCell id="Mm4dQLEYSYV_0u4Z2ucA-112" value="" style="group" connectable="0" vertex="1" parent="1">
          <mxGeometry x="400" y="400" width="39" height="30" as="geometry" />
        </mxCell>
        <mxCell id="Mm4dQLEYSYV_0u4Z2ucA-113" value="" style="endArrow=none;html=1;rounded=0;" edge="1" parent="Mm4dQLEYSYV_0u4Z2ucA-112">
          <mxGeometry width="50" height="50" relative="1" as="geometry">
            <mxPoint y="22.75" as="sourcePoint" />
            <mxPoint x="10" y="7.75" as="targetPoint" />
          </mxGeometry>
        </mxCell>
        <mxCell id="Mm4dQLEYSYV_0u4Z2ucA-114" value="&lt;font style=&quot;font-size: 9px;&quot;&gt;2&lt;/font&gt;" style="text;html=1;align=center;verticalAlign=middle;resizable=0;points=[];autosize=1;strokeColor=none;fillColor=none;" vertex="1" parent="Mm4dQLEYSYV_0u4Z2ucA-112">
          <mxGeometry x="4.5" width="30" height="30" as="geometry" />
        </mxCell>
        <mxCell id="Mm4dQLEYSYV_0u4Z2ucA-119" value="" style="group" connectable="0" vertex="1" parent="1">
          <mxGeometry x="190" y="400" width="39" height="30" as="geometry" />
        </mxCell>
        <mxCell id="Mm4dQLEYSYV_0u4Z2ucA-120" value="" style="endArrow=none;html=1;rounded=0;" edge="1" parent="Mm4dQLEYSYV_0u4Z2ucA-119">
          <mxGeometry width="50" height="50" relative="1" as="geometry">
            <mxPoint y="22.75" as="sourcePoint" />
            <mxPoint x="10" y="7.75" as="targetPoint" />
          </mxGeometry>
        </mxCell>
        <mxCell id="Mm4dQLEYSYV_0u4Z2ucA-121" value="&lt;font style=&quot;font-size: 9px;&quot;&gt;2&lt;/font&gt;" style="text;html=1;align=center;verticalAlign=middle;resizable=0;points=[];autosize=1;strokeColor=none;fillColor=none;" vertex="1" parent="Mm4dQLEYSYV_0u4Z2ucA-119">
          <mxGeometry x="4.5" width="30" height="30" as="geometry" />
        </mxCell>
        <mxCell id="Mm4dQLEYSYV_0u4Z2ucA-122" value="" style="group" connectable="0" vertex="1" parent="1">
          <mxGeometry x="295" y="370" width="39" height="30" as="geometry" />
        </mxCell>
        <mxCell id="Mm4dQLEYSYV_0u4Z2ucA-123" value="" style="endArrow=none;html=1;rounded=0;" edge="1" parent="Mm4dQLEYSYV_0u4Z2ucA-122">
          <mxGeometry width="50" height="50" relative="1" as="geometry">
            <mxPoint y="22.75" as="sourcePoint" />
            <mxPoint x="10" y="7.75" as="targetPoint" />
          </mxGeometry>
        </mxCell>
        <mxCell id="Mm4dQLEYSYV_0u4Z2ucA-124" value="&lt;font style=&quot;font-size: 9px;&quot;&gt;16&lt;br&gt;&lt;/font&gt;" style="text;html=1;align=center;verticalAlign=middle;resizable=0;points=[];autosize=1;strokeColor=none;fillColor=none;" vertex="1" parent="Mm4dQLEYSYV_0u4Z2ucA-122">
          <mxGeometry x="4.5" width="30" height="30" as="geometry" />
        </mxCell>
      </root>
    </mxGraphModel>
  </diagram>
</mxfile>
